<svg width="50" height="50" viewBox="0 0 50 50" fill="none" xmlns="http://www.w3.org/2000/svg">
<circle cx="25" cy="25" r="25" fill="#942A50"/>
<path d="M20.2002 27.8C20.7306 27.8 21.2393 28.0108 21.6144 28.3858C21.9895 28.7609 22.2002 29.2696 22.2002 29.8" stroke="white" stroke-width="2" stroke-linecap="round" stroke-linejoin="round"/>
<path d="M31.5 25C33.433 25 35 23.433 35 21.5C35 19.567 33.433 18 31.5 18C29.567 18 28 19.567 28 21.5C28 23.433 29.567 25 31.5 25Z" stroke="white" stroke-width="2" stroke-linecap="round" stroke-linejoin="round"/>
<path d="M20.5 35C23.5376 35 26 32.5376 26 29.5C26 26.4624 23.5376 24 20.5 24C17.4624 24 15 26.4624 15 29.5C15 32.5376 17.4624 35 20.5 35Z" stroke="white" stroke-width="2" stroke-linecap="round" stroke-linejoin="round"/>
<path d="M20.5 20C21.8807 20 23 18.8807 23 17.5C23 16.1193 21.8807 15 20.5 15C19.1193 15 18 16.1193 18 17.5C18 18.8807 19.1193 20 20.5 20Z" stroke="white" stroke-width="2" stroke-linecap="round" stroke-linejoin="round"/>
</svg>
