<svg width="21" height="21" viewBox="0 0 21 21" fill="none" xmlns="http://www.w3.org/2000/svg">
<g clip-path="url(#clip0_75_409)">
<path d="M17.4209 6.125H3.6709C3.32572 6.125 3.0459 6.40482 3.0459 6.75V16.125C3.0459 16.4702 3.32572 16.75 3.6709 16.75H17.4209C17.7661 16.75 18.0459 16.4702 18.0459 16.125V6.75C18.0459 6.40482 17.7661 6.125 17.4209 6.125Z" stroke="black" stroke-width="1.42857" stroke-linecap="round" stroke-linejoin="round"/>
<path d="M7.4209 8V5.5C7.4209 4.6712 7.75014 3.87634 8.33619 3.29029C8.92224 2.70424 9.7171 2.375 10.5459 2.375C11.3747 2.375 12.1696 2.70424 12.7556 3.29029C13.3417 3.87634 13.6709 4.6712 13.6709 5.5V8" stroke="black" stroke-width="1.42857" stroke-linecap="round" stroke-linejoin="round"/>
</g>
<defs>
<clipPath id="clip0_75_409">
<rect width="20" height="20" fill="white" transform="translate(0.545898 0.5)"/>
</clipPath>
</defs>
</svg>
