<svg width="24" height="24" viewBox="0 0 24 24" fill="none" xmlns="http://www.w3.org/2000/svg">
<path d="M4.65125 7.42649L11.87 3.47668C12.0629 3.37011 12.2796 3.31421 12.5 3.31421C12.7204 3.31421 12.9371 3.37011 13.13 3.47668L20.3487 7.42813C20.5549 7.54093 20.727 7.707 20.847 7.90902C20.9671 8.11103 21.0307 8.34157 21.0312 8.57657V16.422C21.0307 16.657 20.9671 16.8876 20.847 17.0896C20.727 17.2916 20.5549 17.4577 20.3487 17.5705L13.13 21.5219C12.9371 21.6285 12.7204 21.6844 12.5 21.6844C12.2796 21.6844 12.0629 21.6285 11.87 21.5219L4.65125 17.5705C4.4451 17.4577 4.27301 17.2916 4.15295 17.0896C4.0329 16.8876 3.96928 16.657 3.96875 16.422V8.57739C3.96884 8.34198 4.03225 8.11092 4.15233 7.90844C4.2724 7.70595 4.44473 7.53949 4.65125 7.42649ZM12.5 11.8439L19.0912 8.2345L12.5 4.62512L5.90879 8.2345L12.5 11.8439ZM11.8438 20.0175V12.9784L5.28125 9.38704V16.422L11.8438 20.0175Z" fill="#D4D4D4"/>
</svg>
