<svg width="24" height="24" viewBox="0 0 24 24" fill="none" xmlns="http://www.w3.org/2000/svg">
<path d="M13.0236 2.4681C12.883 2.32826 12.6928 2.24976 12.4945 2.24976C12.2963 2.24976 12.1061 2.32826 11.9655 2.4681C11.4575 2.9741 10.9255 3.4701 10.3715 3.9881C9.94355 4.3881 9.50155 4.8011 9.04455 5.2421C8.02955 6.2221 7.01255 7.2781 6.18155 8.4221C4.50455 10.7281 3.53955 13.4651 4.88055 16.6861C6.14955 19.7341 9.20755 21.7501 12.4995 21.7501C15.7915 21.7501 18.8496 19.7341 20.1196 16.6861C21.4606 13.4631 20.4936 10.7261 18.8146 8.4191C17.9826 7.2761 16.9646 6.2191 15.9486 5.2401C15.4916 4.8001 15.0476 4.3861 14.6186 3.9861C14.0787 3.48874 13.547 2.98267 13.0236 2.4681Z" fill="#D4D4D4"/>
</svg>
