<svg width="50" height="50" viewBox="0 0 50 50" fill="none" xmlns="http://www.w3.org/2000/svg">
<rect width="50" height="50" rx="25" fill="#942A50"/>
<g clip-path="url(#clip0_67_221)">
<path d="M37.0004 25.0001C37.0004 24.2248 36.3315 22.8082 34.8625 21.5313C34.024 20.81 33.0683 20.2374 32.0368 19.8382C32.0025 19.8254 31.9647 19.8258 31.9306 19.8393C31.8966 19.8528 31.8688 19.8785 31.8526 19.9113C31.8456 19.9249 31.8385 19.9381 31.8306 19.9517L31.381 20.697C30.623 22.006 30.224 23.492 30.2246 25.0047C30.2252 26.5175 30.6252 28.0032 31.3843 29.3117L31.3951 29.3299L31.8048 30.0799C31.8265 30.1198 31.862 30.1504 31.9046 30.1661C31.9471 30.1817 31.994 30.1815 32.0364 30.1652C35.4831 28.8167 37.0004 26.1949 37.0004 25.0001ZM32.5979 24.9935C32.4426 25.0138 32.2848 24.985 32.1467 24.9111C32.0086 24.8371 31.8971 24.7218 31.8279 24.5813C31.7586 24.4408 31.7352 24.2821 31.7607 24.1275C31.7863 23.973 31.8596 23.8303 31.9703 23.7195C32.0811 23.6088 32.2238 23.5355 32.3783 23.5099C32.5329 23.4844 32.6916 23.5078 32.8321 23.5771C32.9726 23.6463 33.0879 23.7578 33.1619 23.8959C33.2358 24.034 33.2646 24.1918 33.2443 24.3471C33.2229 24.511 33.1479 24.6633 33.031 24.7802C32.9141 24.8971 32.7618 24.9721 32.5979 24.9935Z" fill="white"/>
<path d="M28.724 25.0001C28.7234 23.2218 29.1937 21.4751 30.0871 19.9376L30.0928 19.9277L30.3093 19.5682C30.325 19.5426 30.3342 19.5136 30.3364 19.4836C30.3385 19.4537 30.3334 19.4237 30.3215 19.3961C30.3096 19.3686 30.2912 19.3442 30.268 19.3253C30.2447 19.3063 30.2173 19.2931 30.1879 19.2869C29.5811 19.16 28.9662 19.0755 28.3476 19.0343C28.2747 19.0296 28.2047 19.0035 28.1465 18.9593C27.2428 18.2721 25.4512 17.0702 23.6249 16.7613C23.5001 16.7406 23.3721 16.7519 23.2528 16.7939C23.1336 16.836 23.0268 16.9076 22.9426 17.002C22.8584 17.0964 22.7995 17.2106 22.7712 17.3339C22.743 17.4572 22.7464 17.5856 22.7812 17.7072L23.279 19.4496C23.2919 19.4947 23.2875 19.5431 23.2665 19.5851C23.2455 19.6271 23.2095 19.6597 23.1656 19.6765C21.4382 20.3182 19.9504 21.4929 18.8653 22.3882C18.7988 22.4425 18.7158 22.4725 18.63 22.473C18.5441 22.4735 18.4607 22.4446 18.3937 22.391C18.2462 22.2738 18.0948 22.1583 17.9395 22.0446C16.0813 20.6876 13.8984 20.509 13.8065 20.5024C13.6899 20.4936 13.5728 20.5122 13.4646 20.5567C13.3564 20.6012 13.2601 20.6704 13.1835 20.7588C13.1068 20.8472 13.0519 20.9522 13.0231 21.0656C12.9943 21.179 12.9924 21.2975 13.0176 21.4118C13.0373 21.5022 13.4484 23.3191 14.5035 24.7685C14.551 24.8335 14.5766 24.9118 14.5766 24.9923C14.5766 25.0728 14.551 25.1512 14.5035 25.2162C13.4484 26.6651 13.0373 28.4824 13.0176 28.5729C12.9924 28.6871 12.9943 28.8057 13.0231 28.919C13.0519 29.0324 13.1068 29.1375 13.1835 29.2259C13.2601 29.3142 13.3564 29.3834 13.4646 29.4279C13.5728 29.4725 13.6899 29.4911 13.8065 29.4822C13.9003 29.4757 16.0813 29.2947 17.9371 27.941C18.0887 27.8297 18.2367 27.7169 18.381 27.6026C18.4481 27.5491 18.5316 27.5202 18.6174 27.5208C18.7032 27.5214 18.7862 27.5514 18.8526 27.6058C19.9424 28.5054 21.4331 29.6815 23.1651 30.3246C23.2089 30.3413 23.2448 30.3738 23.2658 30.4157C23.2868 30.4577 23.2913 30.5059 23.2785 30.551L22.7788 32.2938C22.7441 32.4154 22.7407 32.5439 22.7689 32.6672C22.7971 32.7905 22.8561 32.9047 22.9403 32.9991C23.0245 33.0935 23.1312 33.165 23.2505 33.2071C23.3698 33.2492 23.4978 33.2604 23.6226 33.2397C24.427 33.1038 26.0545 32.6369 28.1249 31.0446C28.1841 30.9995 28.2551 30.9726 28.3293 30.9672C28.9471 30.9268 29.5614 30.8438 30.1678 30.7188C30.1964 30.7128 30.2232 30.7002 30.2461 30.682C30.2689 30.6637 30.2872 30.6404 30.2995 30.6139C30.3117 30.5873 30.3176 30.5583 30.3166 30.529C30.3157 30.4998 30.3078 30.4712 30.2938 30.4455L30.0824 30.0569C29.1916 28.5206 28.7229 26.776 28.724 25.0001Z" fill="white"/>
</g>
<defs>
<clipPath id="clip0_67_221">
<rect width="24" height="24" fill="white" transform="translate(13 13)"/>
</clipPath>
</defs>
</svg>
