<svg width="50" height="50" viewBox="0 0 50 50" fill="none" xmlns="http://www.w3.org/2000/svg">
<circle cx="25" cy="25" r="25" fill="#942A50"/>
<path d="M25.0013 13.3333C22.542 13.3331 20.1821 14.3036 18.4344 16.0338C16.6867 17.764 15.6926 20.1141 15.668 22.5733C15.668 28.9666 23.893 36.0833 24.243 36.3866C24.4543 36.5673 24.7232 36.6667 25.0013 36.6667C25.2794 36.6667 25.5483 36.5673 25.7596 36.3866C26.168 36.0833 34.3346 28.9666 34.3346 22.5733C34.31 20.1141 33.3159 17.764 31.5682 16.0338C29.8205 14.3036 27.4606 13.3331 25.0013 13.3333ZM25.0013 26.1666C24.1937 26.1666 23.4042 25.9271 22.7327 25.4784C22.0612 25.0297 21.5379 24.392 21.2288 23.6459C20.9197 22.8997 20.8389 22.0787 20.9964 21.2866C21.154 20.4945 21.5429 19.767 22.1139 19.1959C22.685 18.6248 23.4126 18.2359 24.2047 18.0784C24.9968 17.9208 25.8178 18.0017 26.5639 18.3107C27.3101 18.6198 27.9478 19.1432 28.3965 19.8147C28.8452 20.4862 29.0846 21.2756 29.0846 22.0833C29.0846 23.1662 28.6544 24.2048 27.8887 24.9706C27.1229 25.7364 26.0843 26.1666 25.0013 26.1666Z" fill="white"/>
</svg>
