<svg width="76" height="154" viewBox="0 0 76 154" fill="none" xmlns="http://www.w3.org/2000/svg">
<path d="M29.1858 0.0642565C29.0164 0.129374 28.5346 0.494033 28.1308 0.88474C27.5578 1.40568 27.2062 1.62708 26.6071 1.78336C26.1773 1.9136 25.6824 2.00476 25.5131 2.00476C24.7968 2.00476 21.7493 2.96851 20.3818 3.64573C18.9883 4.30993 18.8841 4.4011 17.178 6.13323C14.925 8.41235 14.365 9.03748 14.2087 9.45423C14.0915 9.76679 14.2347 14.872 14.391 16.0051C14.4301 16.2786 14.6385 16.8125 14.8338 17.1772C15.3678 18.1019 15.6803 20.1335 15.5631 21.7875C15.472 23.0248 15.472 23.0508 15.9148 23.8843C16.6441 25.2909 17.165 27.049 17.2301 28.3774C17.2953 29.4844 17.3474 29.6537 18.0246 31.0342C18.4283 31.8417 18.7018 32.571 18.6497 32.6622C18.5976 32.7403 18.5585 34.238 18.5585 35.9962C18.5455 39.4995 18.4413 40.3461 17.8422 41.987C17.6208 42.5861 17.2953 43.7452 17.1129 44.5787C16.3706 48.0169 15.7585 51.2468 15.7585 51.7156C15.7455 51.9891 15.6673 52.4449 15.5501 52.7314C15.4459 53.018 15.1334 54.0859 14.8468 55.1017C14.5082 56.2608 14.1566 57.2246 13.8701 57.6934C13.6226 58.1102 13.4142 58.6181 13.4142 58.8395C13.4142 59.7772 13.7138 61.6005 13.8961 61.7437C14.0394 61.8479 14.0524 61.9521 13.9482 62.1475C13.8701 62.2907 13.6096 63.2675 13.3491 64.3354C13.0887 65.4033 12.3593 67.8518 11.7212 69.7923C11.083 71.7198 10.3798 74.064 10.1584 75.0017C9.71556 76.8771 8.98624 79.052 8.56949 79.7553C8.41321 80.0027 7.86622 80.6539 7.3583 81.1879C6.85038 81.7218 6.17316 82.5553 5.86059 83.0372C5.46989 83.6103 5.15732 83.9358 4.94894 83.9879C4.24567 84.1572 3.5424 84.587 3.39914 84.9387C3.321 85.134 3.20379 86.2019 3.12565 87.3089C2.91727 90.4867 2.78704 91.3723 2.4354 92.0886C1.8233 93.2867 1.30235 95.3705 1.30235 96.6208C1.30235 97.4543 1.21119 98.0403 0.976765 98.8217C0.807459 99.3948 0.573036 100.424 0.468847 101.101C0.364659 101.778 0.208377 102.39 0.143259 102.455C0.0651177 102.533 0 102.82 0 103.093C0 104.018 0.963742 104.37 4.24567 104.695L5.1443 104.787V105.294C5.1443 105.698 5.24849 105.894 5.62617 106.284C6.01688 106.701 6.13409 106.948 6.30339 107.782C6.60293 109.228 6.57689 110.777 6.23828 111.767C5.9778 112.523 5.9778 112.601 6.17316 112.9C6.32944 113.135 6.49875 113.226 6.81131 113.226C7.26714 113.226 9.87184 112.002 12.2942 110.634C13.0756 110.204 13.6096 109.957 13.4924 110.087C13.0496 110.569 13.2189 110.934 14.3389 111.949C14.912 112.47 15.472 113.056 15.5762 113.252C15.7194 113.525 15.7585 114.281 15.7585 116.677V119.751L14.925 121.991C13.6617 125.416 13.6356 125.52 13.7138 126.497C13.7529 126.966 13.857 127.578 13.9352 127.838C14.1045 128.424 14.6385 129.088 15.0813 129.258C15.3678 129.375 15.3938 129.427 15.3157 129.935C15.2636 130.235 15.1073 130.86 14.964 131.315C14.7296 132.097 14.7296 132.214 14.8989 133.204C15.0031 133.777 15.1334 134.702 15.1724 135.236C15.2115 135.77 15.3417 136.733 15.4459 137.384C15.6282 138.478 15.6152 138.635 15.3808 139.794C15.2375 140.471 15.0292 141.318 14.925 141.682C14.8208 142.034 14.6124 142.776 14.4561 143.31C14.2998 143.844 13.9222 144.925 13.6096 145.72C13.3101 146.501 12.9584 147.478 12.8412 147.894C12.724 148.298 12.4375 148.858 12.2031 149.132C11.5128 149.965 10.7574 151.554 10.8616 151.971C10.9919 152.492 11.6691 152.713 13.1538 152.739L14.391 152.752L15.4199 152.049C15.9799 151.671 16.7613 151.215 17.152 151.046L17.8553 150.734L18.4153 151.059C19.2879 151.567 19.7828 151.502 20.473 150.786L21.046 150.2L21.5019 150.46C22.4396 151.007 24.6405 151.15 25.6433 150.721L26.0731 150.538L26.7504 151.281C27.1671 151.749 27.5187 152.036 27.7011 152.036C27.8443 152.036 28.2871 151.893 28.6778 151.71C29.0555 151.528 29.4592 151.385 29.5634 151.385C29.6676 151.385 30.2928 151.619 30.9439 151.893C31.5821 152.179 32.6109 152.505 33.223 152.622C35.2026 153 35.4631 153.078 36.0882 153.534C36.7524 154.029 37.4948 154.146 37.9636 153.807C38.1069 153.716 39.1357 153.078 40.2427 152.401C41.3497 151.723 42.7563 150.838 43.3684 150.447C45.2828 149.197 45.7908 148.988 46.7545 149.027C47.2234 149.054 47.7964 149.08 48.0438 149.093C48.682 149.119 48.7992 148.858 48.6038 147.777C48.5127 147.295 48.3564 146.397 48.2522 145.785C48.135 145.173 47.9657 144.326 47.8615 143.896C47.7703 143.466 47.6401 142.698 47.601 142.203C47.4838 140.992 46.8326 138.869 46.4159 138.374L46.0903 137.984L46.481 136.655C46.7024 135.874 47.041 135.079 47.2624 134.754C47.6271 134.246 47.6662 134.089 47.6662 133.217V132.24L48.7471 131.055C51.7295 127.773 51.9249 127.461 52.1463 125.95C52.2504 125.26 52.4979 125.077 53.3184 125.077C53.6179 125.077 53.8393 124.96 54.1389 124.66C54.3472 124.426 54.5686 124.126 54.6077 124.009C54.6728 123.814 54.7249 123.814 55.1807 124.048C55.9361 124.439 56.5612 124.374 57.0431 123.879C57.4729 123.423 57.4859 123.371 57.6943 122.082C57.7724 121.613 57.9808 120.962 58.1631 120.623C58.3324 120.285 58.4757 119.881 58.4757 119.738C58.4757 119.594 58.6841 119.256 58.9315 118.969C59.4134 118.435 59.5176 117.927 59.192 117.654C59.0097 117.498 58.632 117.563 56.3008 118.175C55.9621 118.253 55.8059 118.214 55.4282 117.966C54.9463 117.641 54.3993 116.807 54.2561 116.195C54.217 116.013 53.9305 115.557 53.6309 115.205C53.3184 114.841 52.7844 114.059 52.4328 113.473C51.7035 112.236 51.3909 111.845 50.909 111.598L50.5704 111.416L50.7527 110.465C51.2607 107.886 51.43 107.365 51.8988 106.818C52.2635 106.375 52.3546 106.167 52.3546 105.711C52.3546 105.32 52.2895 105.125 52.1593 105.073C51.8207 104.943 51.9379 104.565 52.576 103.706C52.9016 103.25 53.5137 102.325 53.9305 101.635C54.7379 100.319 54.8812 100.176 55.7277 99.9418C56.0142 99.8636 56.418 99.6683 56.6133 99.499C56.9129 99.2385 56.978 99.0562 57.0431 98.2878C57.1082 97.5975 57.2515 97.1417 57.6161 96.4384C57.8766 95.9305 58.1501 95.2663 58.2152 94.9538C58.2803 94.6542 58.3715 94.2505 58.4236 94.0421C58.4757 93.8468 58.3976 93.2347 58.2673 92.6356C57.9548 91.2681 57.6292 90.9555 56.5222 90.9555C56.1184 90.9555 55.5584 91.0467 55.2849 91.1639C55.0114 91.2681 54.7249 91.3332 54.6337 91.2941C54.5426 91.2681 54.4514 90.8774 54.4123 90.3695C54.3212 89.2625 53.9435 88.8197 52.8495 88.5201C52.4328 88.4029 52.0942 88.2336 52.0942 88.1555C52.0942 88.0643 52.1853 87.7648 52.3025 87.5043C52.6542 86.6578 52.4718 86.215 51.3388 85.134L50.349 84.1963L50.5053 83.4279C50.8309 81.8781 50.7788 81.6958 49.6978 80.5627C49.0857 79.9246 48.682 79.3776 48.5778 79.039C48.3173 78.1925 47.8745 77.8408 46.8587 77.6194C46.5982 77.5543 46.468 77.4371 46.4159 77.1766C46.3638 76.9813 46.2466 76.6817 46.1424 76.5124L45.947 76.1999L46.5722 76.278C48.6559 76.5515 49.268 76.5385 50.1797 76.1868C50.909 75.9003 51.2737 75.8482 52.3677 75.8482C53.0839 75.8482 54.23 75.9133 54.9072 76.0045C55.8189 76.1087 56.2487 76.1087 56.6263 76.0045C57.4859 75.744 57.6552 75.4445 57.8896 73.6993C58.1371 71.863 58.5017 70.9384 59.4264 69.7923C60.2469 68.7895 60.286 68.6462 60.4422 66.9271C60.5074 66.1457 60.5985 65.1819 60.6376 64.8043C60.6897 64.3875 60.6506 63.9577 60.5595 63.7233C60.3511 63.2414 59.2701 62.2517 58.3845 61.7568L57.6943 61.3661V60.1158C57.6943 59.4125 57.7464 58.7874 57.7985 58.7092C57.9417 58.5009 58.9445 58.1362 59.3873 58.1362C59.9864 58.1362 60.4032 57.9148 60.7157 57.4199C60.9371 57.0683 61.1585 56.925 61.5883 56.8078C61.9139 56.7297 62.3958 56.4562 62.6693 56.2087C63.073 55.8441 63.1642 55.6748 63.1642 55.2841C63.1511 54.6589 62.7995 53.9036 62.1614 53.1612C61.8097 52.7575 61.5753 52.3277 61.4711 51.8979C61.3148 51.2468 61.3148 51.2207 61.7186 50.7779C62.0832 50.3612 62.1223 50.2309 62.1223 49.4756C62.1223 48.7462 62.0832 48.616 61.7967 48.4076L61.4841 48.1732L61.8748 47.0662C62.3046 45.842 62.3046 46.0634 61.7706 42.7163C61.5883 41.5442 61.5883 41.401 61.7837 40.9842C62.0572 40.4112 62.0441 39.76 61.7446 38.4967C61.419 37.1423 61.1846 36.7125 60.4683 36.2176L59.8822 35.8008L60.5855 35.7357C61.6795 35.6315 62.3176 35.0585 62.6432 33.9124C62.7083 33.665 62.9428 33.1961 63.1511 32.8966C63.4767 32.4017 63.5028 32.2845 63.3856 31.9459C63.2553 31.6073 63.2814 31.5291 63.646 31.1514C63.8674 30.917 64.4405 30.2268 64.9223 29.6147L65.7819 28.5077L67.1754 28.0779C67.9438 27.8304 68.8164 27.6481 69.1159 27.6481C69.7411 27.6481 70.0666 27.3486 70.3401 26.5151C70.4313 26.2546 70.7569 25.7076 71.0825 25.3169C71.395 24.9262 71.8118 24.288 71.9941 23.9104C72.1895 23.5327 72.4239 23.2331 72.5411 23.2331C72.8146 23.2331 73.4397 22.8294 73.9607 22.3085C74.1951 22.061 74.6249 21.3708 74.9114 20.7717C75.3412 19.834 75.4323 19.4954 75.4975 18.5447C75.5626 17.5028 75.5496 17.3725 75.2761 17.0079C74.5337 16.0181 72.0332 14.3771 70.9132 14.1687C70.5876 14.1167 70.288 14.1557 69.9234 14.325C69.2722 14.6116 68.8294 14.4813 68.4127 13.8692C68.061 13.3483 68.0219 12.4887 68.2694 10.5352C68.3866 9.4933 68.3866 9.23283 68.2043 8.75096C68.1001 8.43839 67.9829 7.9435 67.9438 7.64396C67.9047 7.34442 67.7354 6.77138 67.5531 6.38067C67.2405 5.70345 67.1754 5.65135 66.7847 5.65135C66.4461 5.65135 66.2638 5.75554 65.9512 6.1202C65.5735 6.57603 65.5214 6.60207 64.5577 6.66719L63.5549 6.73231V6.18532C63.5549 5.59926 63.1251 5.00018 62.7083 5.00018C62.3307 5.00018 61.5362 5.49507 61.1585 5.97694C60.8199 6.41974 60.7548 6.44579 60.312 6.36765C60.0515 6.31556 59.4655 6.13323 59.0097 5.9509C58.2673 5.65135 58.085 5.62531 57.1082 5.71647L56.0273 5.80764L55.324 5.07832C54.4514 4.17969 54.1909 4.15365 53.5137 4.89599C52.8625 5.61228 52.6021 6.1723 52.4979 7.09697C52.4328 7.56582 52.3025 7.96954 52.1463 8.13885C51.8337 8.47746 50.9481 8.93329 49.9974 9.23283C49.3201 9.4412 49.229 9.4412 48.5518 9.24585C47.7052 8.9984 46.0773 8.97236 45.4652 9.18073C45.0745 9.31097 44.9312 9.2719 43.8372 8.72491C43.1861 8.39932 42.2093 8.03466 41.6753 7.91745C40.5813 7.67 39.839 7.76117 38.3283 8.32118C37.4036 8.67282 37.4036 8.67282 37.3515 7.73512C37.3124 7.17511 37.2864 7.14906 36.8827 7.10999C36.5441 7.07092 36.3487 7.16209 35.945 7.52674C35.6715 7.77419 35.2547 8.07373 35.0333 8.19095C34.8119 8.30816 34.1868 8.68584 33.6398 9.03748C33.0798 9.41516 32.5068 9.68865 32.3114 9.68865C31.7905 9.68865 30.6704 9.33702 30.3318 9.0505L30.0453 8.81608L30.3579 7.85233C30.5793 7.17511 30.8267 6.71929 31.2044 6.30253C32.1551 5.24763 33.21 3.58061 33.21 3.09874C33.21 2.34338 32.4807 2.10895 31.0351 2.38245L30.4751 2.48663V1.49685C30.4621 0.92381 30.3969 0.415892 30.3058 0.29868C30.0974 0.0251859 29.5765 -0.0790024 29.1858 0.0642565ZM12.5286 101.439C12.724 101.986 12.8152 102.468 12.7891 102.846L12.737 103.432L11.9686 103.575C11.4607 103.68 11.044 103.862 10.7705 104.096C10.536 104.305 10.1453 104.552 9.88487 104.669C9.6244 104.774 9.27276 105.008 9.10345 105.203L8.79089 105.542L7.70994 105.216C7.12388 105.034 6.64201 104.865 6.64201 104.852C6.64201 104.826 7.00666 104.839 7.46249 104.865C8.19181 104.917 8.38716 104.865 9.09043 104.513C9.94998 104.083 10.1974 103.758 10.3667 102.872C10.4188 102.586 10.536 102.234 10.6272 102.091C10.8356 101.791 10.8616 101.14 10.6793 100.671C10.5751 100.385 10.6142 100.293 10.9788 99.9939L11.3826 99.6553L11.7993 100.124C12.0338 100.398 12.3593 100.984 12.5286 101.439Z" fill="#ECEDEF"/>
<circle cx="37.5" cy="26.5" r="6.5" fill="#AC1325" fill-opacity="0.18"/>
<circle cx="37.5" cy="26.5" r="6.4" stroke="#AC1325" stroke-opacity="0.31" stroke-width="0.2"/>
<circle cx="37.5" cy="26.5" r="1.5" fill="#AC1325"/>
</svg>
