<svg width="50" height="50" viewBox="0 0 50 50" fill="none" xmlns="http://www.w3.org/2000/svg">
<circle cx="25" cy="25" r="25" fill="#942A50"/>
<g clip-path="url(#clip0_100_772)">
<path d="M36.9438 31.1146C36.6642 30.8168 35.6768 29.936 33.8618 28.7708C32.0333 27.5955 30.6849 26.8626 30.2981 26.6917C30.264 26.6766 30.2264 26.671 30.1894 26.6757C30.1524 26.6803 30.1174 26.6949 30.0881 26.7179C29.465 27.2039 28.4161 28.0964 28.3598 28.1446C27.9966 28.4558 27.9966 28.4558 27.6993 28.3589C27.1764 28.1874 25.5521 27.3249 24.1367 25.9063C22.7213 24.4877 21.8143 22.8232 21.6429 22.3009C21.5448 22.003 21.5448 22.003 21.8572 21.6398C21.9054 21.5836 22.7984 20.5346 23.2843 19.9121C23.3074 19.8828 23.322 19.8478 23.3266 19.8108C23.3313 19.7737 23.3257 19.7362 23.3106 19.7021C23.1397 19.3148 22.4068 17.9669 21.2314 16.1385C20.0646 14.324 19.1849 13.3366 18.8871 13.057C18.8597 13.0312 18.826 13.0132 18.7893 13.005C18.7526 12.9968 18.7144 12.9987 18.6787 13.0104C17.6375 13.3682 16.6329 13.8247 15.6786 14.3738C14.7574 14.9093 13.8852 15.5251 13.0723 16.214C13.0439 16.2381 13.0226 16.2695 13.0107 16.3048C12.9988 16.3401 12.9968 16.378 13.0048 16.4144C13.1167 16.9362 13.6519 19.1144 15.3127 22.1316C17.0072 25.211 18.1815 26.7887 20.67 29.2685C23.1584 31.7484 24.786 32.9934 27.8686 34.6879C30.8858 36.3487 33.0651 36.8844 33.5859 36.9953C33.6223 37.0032 33.6602 37.0011 33.6956 36.9892C33.731 36.9773 33.7625 36.9561 33.7868 36.9278C34.4755 36.1149 35.0912 35.2427 35.6265 34.3215C36.1754 33.3672 36.632 32.3626 36.9899 31.3214C37.0013 31.286 37.0031 31.2481 36.995 31.2118C36.9869 31.1754 36.9692 31.1419 36.9438 31.1146Z" fill="white"/>
</g>
<defs>
<clipPath id="clip0_100_772">
<rect width="24" height="24" fill="white" transform="translate(13 13)"/>
</clipPath>
</defs>
</svg>
