<svg width="50" height="50" viewBox="0 0 50 50" fill="none" xmlns="http://www.w3.org/2000/svg">
<rect width="50" height="50" rx="25" fill="#942A50"/>
<path fill-rule="evenodd" clip-rule="evenodd" d="M22.3262 29.2893L20.3088 31.1433C20.4628 31.9523 20.4727 32.6111 20.3383 33.1195C20.1377 33.8818 18.3733 35.461 17.4652 34.8707C16.9081 34.5083 16.55 33.8194 16.3907 32.8039C16.378 32.7239 16.3419 32.6489 16.2866 32.5876C16.2314 32.5263 16.1592 32.4812 16.0783 32.4576C15.4462 32.2738 15.0242 32.1073 14.8124 31.9578C14.2145 31.5365 14.046 30.9213 14.0073 30.6069C13.9149 29.8514 14.7126 29.4781 15.9384 29.1279C16.7553 28.8948 17.6824 28.9393 18.7196 29.2615L20.7673 27.6148L20.6107 27.4796C20.5615 27.4372 20.5227 27.3848 20.4972 27.3263C20.4717 27.2678 20.46 27.2045 20.4632 27.1412C20.4663 27.0779 20.4841 27.016 20.5152 26.96C20.5463 26.904 20.5901 26.8554 20.6432 26.8176L21.1607 26.4498C21.7608 21.9822 23.1051 18.9789 25.1936 17.4398C28.6806 14.8707 32.0034 13.8948 34.5721 16.6779C37.1403 19.461 36.0153 22.4076 33.0176 25.9184C31.4521 27.7519 28.5253 28.7642 24.2371 28.9552C24.1381 28.9594 24.0435 28.9952 23.9678 29.0567L23.2124 29.6736C23.1654 29.7119 23.1107 29.7406 23.0517 29.7576C22.9926 29.7747 22.9305 29.7799 22.8693 29.7729C22.808 29.7659 22.749 29.7469 22.6958 29.7169C22.6426 29.687 22.5965 29.6469 22.5603 29.599L22.3262 29.2893Z" fill="white"/>
</svg>
