<svg width="96" height="17" viewBox="0 0 96 17" fill="none" xmlns="http://www.w3.org/2000/svg">
<path d="M8 1.17529V13.1216L7.91699 13.0718L3.02832 16.021L4.31445 10.4595L0 6.71826L5.7002 6.22412L7.91699 0.979004L8 1.17529Z" fill="#DD2D62"/>
<path d="M8 1.17529V13.1216L8.08301 13.0718L12.9717 16.021L11.6855 10.4595L16 6.71826L10.2998 6.22412L8.08301 0.979004L8 1.17529Z" fill="#DD2D62"/>
<path d="M28 1.17529V13.1216L27.917 13.0718L23.0283 16.021L24.3145 10.4595L20 6.71826L25.7002 6.22412L27.917 0.979004L28 1.17529Z" fill="#DD2D62"/>
<path d="M28 1.17529V13.1216L28.083 13.0718L32.9717 16.021L31.6855 10.4595L36 6.71826L30.2998 6.22412L28.083 0.979004L28 1.17529Z" fill="#DD2D62"/>
<path d="M48 1.17529V13.1216L47.917 13.0718L43.0283 16.021L44.3145 10.4595L40 6.71826L45.7002 6.22412L47.917 0.979004L48 1.17529Z" fill="#DD2D62"/>
<path d="M48 1.17529V13.1216L48.083 13.0718L52.9717 16.021L51.6855 10.4595L56 6.71826L50.2998 6.22412L48.083 0.979004L48 1.17529Z" fill="#DD2D62"/>
<path d="M68 1.17529V13.1216L67.917 13.0718L63.0283 16.021L64.3145 10.4595L60 6.71826L65.7002 6.22412L67.917 0.979004L68 1.17529Z" fill="#DD2D62"/>
<path d="M68 1.17529V13.1216L68.083 13.0718L72.9717 16.021L71.6855 10.4595L76 6.71826L70.2998 6.22412L68.083 0.979004L68 1.17529Z" fill="#DD2D62"/>
<path d="M88 1.17529V13.1216L87.917 13.0718L83.0283 16.021L84.3145 10.4595L80 6.71826L85.7002 6.22412L87.917 0.979004L88 1.17529Z" fill="#DD2D62"/>
<mask id="path-10-inside-1_67_26" fill="white">
<path d="M88 1.17529V13.1216L88.083 13.0718L92.9717 16.021L91.6855 10.4595L96 6.71826L90.2998 6.22412L88.083 0.979004L88 1.17529Z"/>
</mask>
<path d="M88 1.17529H87.3V1.03337L87.3553 0.90265L88 1.17529ZM88 13.1216L88.3601 13.7218L87.3 14.3579V13.1216H88ZM88.083 13.0718L87.7229 12.4715L88.084 12.2549L88.4446 12.4724L88.083 13.0718ZM92.9717 16.021L93.6537 15.8633L94.0263 17.4748L92.6101 16.6204L92.9717 16.021ZM91.6855 10.4595L91.0035 10.6172L90.9086 10.2067L91.227 9.93061L91.6855 10.4595ZM96 6.71826L96.0605 6.02088L97.708 6.1637L96.4586 7.24712L96 6.71826ZM90.2998 6.22412L90.2393 6.92151L89.8192 6.88508L89.655 6.49663L90.2998 6.22412ZM88.083 0.979004L87.4383 0.706361L88.0832 -0.818658L88.7278 0.706495L88.083 0.979004ZM88 1.17529H88.7V13.1216H88H87.3V1.17529H88ZM88 13.1216L87.6399 12.5213L87.7229 12.4715L88.083 13.0718L88.4432 13.672L88.3601 13.7218L88 13.1216ZM88.083 13.0718L88.4446 12.4724L93.3333 15.4216L92.9717 16.021L92.6101 16.6204L87.7214 13.6712L88.083 13.0718ZM92.9717 16.021L92.2897 16.1787L91.0035 10.6172L91.6855 10.4595L92.3675 10.3018L93.6537 15.8633L92.9717 16.021ZM91.6855 10.4595L91.227 9.93061L95.5414 6.1894L96 6.71826L96.4586 7.24712L92.1441 10.9883L91.6855 10.4595ZM96 6.71826L95.9395 7.41565L90.2393 6.92151L90.2998 6.22412L90.3603 5.52674L96.0605 6.02088L96 6.71826ZM90.2998 6.22412L89.655 6.49663L87.4382 1.25151L88.083 0.979004L88.7278 0.706495L90.9446 5.95161L90.2998 6.22412ZM88.083 0.979004L88.7277 1.25165L88.6447 1.44794L88 1.17529L87.3553 0.90265L87.4383 0.706361L88.083 0.979004Z" fill="#DD2D62" mask="url(#path-10-inside-1_67_26)"/>
</svg>
