<svg width="50" height="50" viewBox="0 0 50 50" fill="none" xmlns="http://www.w3.org/2000/svg">
<rect width="50" height="50" rx="25" fill="#942A50"/>
<path d="M27.9403 22.1057C27.7221 21.4562 27.3891 21.2237 27.004 21.2237C26.5345 21.2237 25.987 21.5683 25.4721 21.9253C25.1657 22.1383 23.9796 23.4482 23.3327 23.4482C23.2586 23.4501 23.1858 23.4286 23.1246 23.3867C22.4931 22.9397 23.2843 20.992 23.2843 20.0578C23.2843 19.1537 23.1201 18.8083 22.8685 18.8083C22.1728 18.8083 20.8101 21.457 20.4302 22.2212C20.323 22.4368 20.1733 22.522 19.9997 22.522C19.3926 22.522 18.4896 21.4776 18.0748 21.3175C18.0128 21.2928 17.9469 21.2793 17.8802 21.2777C17.1872 21.2777 17.2022 23.0016 17.2127 23.4591C17.5915 23.3556 17.9466 23.2918 18.2571 23.2918C19.0397 23.2918 19.5373 23.6972 19.4076 24.8871C19.3783 25.1545 19.2092 26.0065 19.486 26.1943C19.5305 26.223 19.5827 26.2375 19.6356 26.236C19.9547 26.236 20.4602 25.8426 20.6481 25.7226C20.9008 25.5606 21.166 25.4421 21.3902 25.4421C21.6602 25.4421 21.871 25.6135 21.9313 26.0878C21.9673 26.3687 21.8297 27.4375 22.105 27.6081C22.1455 27.632 22.1918 27.6446 22.2388 27.6445C22.747 27.6445 23.6143 26.3747 24.007 26.2292C24.1913 26.1611 24.3864 26.1264 24.583 26.1268C25.1053 26.1268 25.6022 26.3575 26.1103 26.5525C26.1958 26.5855 26.2656 26.5997 26.3222 26.5997C26.6293 26.5997 26.5401 26.1733 26.2772 25.9007C25.8943 25.5017 25.2868 25.6768 24.8608 25.3911C24.3197 25.0281 25.0731 24.2987 25.3656 24.0823C25.7147 23.8236 26.4887 23.4077 27.1063 23.4077C27.3925 23.4077 27.6448 23.497 27.8053 23.7317C28.1087 24.1753 27.604 24.7356 27.7315 25.2336C27.7851 25.4402 27.9148 25.5115 28.0686 25.5115C28.396 25.5115 28.8298 25.1882 28.8598 25.1575C29.0593 24.9501 29.2741 24.758 29.5022 24.5826C28.3622 24.3302 28.2655 23.0755 27.9403 22.1057Z" fill="white"/>
<path d="M18.5932 21.1712C18.5932 21.1712 19.579 22.0408 20.0002 22.0408C20.0808 22.0408 20.1412 22.0089 20.1693 21.9317C20.7753 20.2723 22.0567 18.3759 22.8933 18.3759C23.2582 18.3759 23.5383 18.737 23.6403 19.637C23.7723 20.8022 22.9664 22.568 23.3538 22.9704C23.3622 22.979 23.3724 22.9856 23.3835 22.99C23.3947 22.9944 23.4067 22.9964 23.4187 22.9959C23.854 22.9959 25.5742 20.7932 27.0464 20.7932C27.1597 20.7929 27.2726 20.8069 27.3824 20.8348C28.7088 21.1749 28.1339 23.4365 29.2105 24.0827C29.389 24.1909 29.5932 24.249 29.8019 24.251C30.1987 24.251 30.5609 24.0249 30.6475 23.5573C30.8662 22.3768 27.1169 20.0885 29.1453 20.0885C29.4363 20.0885 29.8462 20.1354 30.4034 20.2397C30.7353 17.9657 30.6194 17.3353 30.3224 17.3353C29.9838 17.3353 29.4093 18.1539 28.9912 18.2949C28.9791 18.2992 28.9664 18.3013 28.9537 18.3013C28.7148 18.3013 28.723 17.441 28.3143 17.441C28.0503 17.441 27.6127 17.7999 26.8229 18.9797C26.4157 19.5883 26.1108 19.829 25.87 19.829C24.9543 19.829 24.9802 16.3262 23.8814 16.3262C23.6594 16.3262 23.3917 16.469 23.0609 16.8122C22.5532 17.3394 22.0792 17.5262 21.6355 17.5262C20.5552 17.5262 19.66 16.4165 18.9262 16.4165C18.6367 16.4165 18.3715 16.5894 18.1308 17.0724C17.6324 18.074 19.3199 18.0223 18.5932 21.1712ZM19.8843 21.6219C19.687 21.5334 19.3368 21.2964 19.0083 21.0264C19.069 20.729 19.1065 20.462 19.1283 20.216C19.2209 20.0608 19.3349 19.9078 19.474 19.766C20.0407 19.1882 20.7667 19.0055 21.1225 19.3393C20.6152 20.0387 20.1685 20.8948 19.8843 21.6219ZM28.2134 20.1317C28.0282 20.57 28.3885 21.0328 28.9402 21.6377C28.9015 21.6796 28.8568 21.7153 28.8074 21.7438C28.755 21.7732 28.6979 21.7934 28.6387 21.8034C28.4632 21.2109 28.1688 20.642 27.4739 20.4639C27.3718 20.4391 27.2676 20.4237 27.1627 20.4178C26.9744 19.8058 27.0618 19.2309 27.4184 19.0322C27.8114 18.812 28.3844 19.1263 28.7755 19.736C28.5577 19.7777 28.3207 19.8782 28.2134 20.1317Z" fill="white"/>
<path d="M31.0029 23.5654C30.9208 24.102 31.7008 24.198 31.3281 25.077C31.1368 25.5266 29.5172 26.5631 29.6364 26.79C29.8131 27.1219 30.0253 27.2509 30.2402 27.2509C30.6654 27.2509 31.0986 26.7461 31.2729 26.3089C31.5013 25.737 31.5602 24.2359 32.1167 23.9576C32.2108 23.91 32.3038 23.889 32.3957 23.889C32.9451 23.889 33.4584 24.6319 33.9534 24.7324C34.0742 24.1946 33.9879 23.6366 34.1109 23.0959C32.0214 23.0696 35.2719 20.214 33.4146 19.0489C33.3144 18.9862 33.2304 18.9581 33.1569 18.9585C32.5723 18.9585 32.7084 20.7487 31.2313 20.7487C31.1138 20.749 30.9851 20.7369 30.8451 20.7124C30.3047 20.6171 29.9316 20.5729 29.6874 20.5729C28.2647 20.5736 31.2336 22.0702 31.0029 23.5654Z" fill="white"/>
<path d="M34.7039 20.7601C34.7571 20.438 34.7598 20.1096 34.7121 19.7866C34.5779 18.887 33.8748 18.155 33.145 18.1546C32.8956 18.1546 32.2986 18.2585 32.0163 19.1446C31.8264 19.0653 31.6347 18.9902 31.4414 18.9196C31.6082 17.7965 31.5456 17.0266 31.246 16.6333C31.1737 16.5349 31.0792 16.455 30.9702 16.4C30.8612 16.345 30.7407 16.3165 30.6186 16.3168C30.2264 16.3168 29.7857 16.5793 29.2382 17.1406L29.2184 17.0874C29.1021 16.7731 28.9079 16.2474 28.3866 16.2474C28.0304 16.2474 27.5586 16.4671 26.5671 17.9124C26.2796 17.8913 25.9917 17.8759 25.7035 17.8663L25.6503 17.6728C25.3409 16.5369 24.9899 15.2499 24.001 15.2495H24.0006C23.5975 15.2495 23.1734 15.4869 22.7035 15.9748C22.3536 16.3385 22.0075 16.5151 21.6449 16.5151C21.2027 16.5151 20.7501 16.2616 20.3121 16.0168C19.8693 15.7693 19.4118 15.5131 18.9385 15.5131C18.3775 15.5131 17.9215 15.857 17.5443 16.5646C17.1134 17.3731 17.353 17.9071 17.5847 18.4239C17.686 18.6493 17.7921 18.8881 17.8675 19.1814C15.3561 20.2599 13.75 21.893 13.75 23.7241C13.75 28.799 18.787 34.7503 25 34.7503C31.2134 34.7503 36.25 28.799 36.25 23.7241C36.25 22.6419 35.6807 21.6309 34.7039 20.7601ZM25 33.9856C20.2709 33.9856 16.2944 30.2746 14.9718 26.3885C16.8314 28.2969 20.6223 29.6045 25 29.6045C29.3778 29.6045 33.1679 28.2969 35.0275 26.3889C33.7049 30.2743 29.7288 33.9856 25 33.9856ZM29.1756 27.4284C29.0852 27.7126 28.8044 28.1446 28.456 28.4488C27.9183 28.9179 27.2627 29.0188 26.9504 28.691C26.6879 28.4143 26.731 27.9001 27.0325 27.419C27.6497 26.4335 28.5347 26.2175 28.9188 26.4125C28.9113 26.4395 28.9008 26.4654 28.8955 26.4943C28.8422 26.7939 28.9386 27.1081 29.1756 27.4284ZM34.9386 22.6104C34.5715 22.6104 34.3949 23.6274 34.3686 24.2668C34.3454 24.8304 34.1826 25.0183 33.9498 25.0183C33.6145 25.0183 33.1337 24.6298 32.7141 24.41C32.5799 24.3395 32.4767 24.3084 32.3958 24.3084C32.1554 24.3084 32.1115 24.5893 32.029 24.9868C31.8899 25.6576 31.7241 26.3536 31.3604 26.9323C31.0934 27.3571 30.6805 27.6526 30.2669 27.6526C29.995 27.6526 29.7228 27.5251 29.491 27.2233C28.5798 26.039 30.5815 25.7968 30.9805 24.9849C31.2115 24.5154 31.1376 24.3519 30.9261 24.3519C30.5099 24.3519 29.5608 24.9871 29.365 25.1668C29.0192 25.4829 28.6221 25.9486 28.1361 25.9486C28.0539 25.9491 27.9689 25.9348 27.8811 25.9055C27.3655 25.7315 27.2931 25.0828 27.4022 24.6009C27.493 24.1981 27.7019 23.8363 27.1634 23.8156L27.1064 23.8145C26.7595 23.8145 26.4051 23.9285 26.0905 24.071C25.7088 24.2443 25.1807 24.554 25.0424 25.0089C24.9992 25.1488 25.9251 25.2946 26.0691 25.3501C26.7906 25.6321 27.1435 26.99 26.3886 26.99C26.2911 26.99 26.1753 26.9671 26.0391 26.9176C25.5659 26.741 25.09 26.4913 24.5946 26.4913C24.4319 26.4913 24.2673 26.5183 24.1004 26.5839C23.7546 26.7196 23.5656 27.107 23.2934 27.3496C22.8906 27.7111 22.5344 27.9054 22.2546 27.9054C21.8691 27.9054 21.6291 27.5364 21.6137 26.726C21.6002 26.0675 21.4739 25.8541 21.2695 25.8541C20.905 25.8541 20.293 26.5348 19.6356 26.585C19.6164 26.5863 19.598 26.5869 19.5805 26.5869C18.7034 26.5869 19.0446 24.9193 19.1129 24.4051C19.1875 23.8445 18.8492 23.6454 18.3284 23.6454C17.743 23.6454 16.9289 23.8966 16.2119 24.1693C16.2464 24.2 16.2824 24.227 16.3154 24.2608C16.9716 24.9155 17.1872 25.7791 16.7984 26.1883C16.4087 26.5966 15.5616 26.3968 14.9061 25.7413C14.2506 25.0858 14.0342 24.2221 14.4239 23.8134C14.7565 23.462 15.2736 23.5801 15.7135 23.8145C16.2884 23.6214 16.8715 23.453 16.858 23.1815C16.7556 21.128 17.338 20.7448 17.7876 20.7451C17.959 20.7494 18.1267 20.7962 18.2755 20.8813C18.6813 18.2679 17.1591 18.0905 17.8742 16.7484C18.2129 16.1135 18.5665 15.8968 18.9392 15.8968C19.7406 15.8968 20.6298 16.8984 21.6456 16.8984C22.0653 16.8984 22.5066 16.727 22.972 16.2436C23.3894 15.8101 23.7254 15.6328 24.0017 15.6328C25.2381 15.6331 25.2711 19.184 25.978 19.184C26.1138 19.184 26.2746 19.0531 26.473 18.7411C27.5099 17.1129 28.0615 16.6303 28.387 16.6303C28.8618 16.6303 28.8554 17.657 29.1693 17.657C29.2338 17.657 29.3125 17.6131 29.4115 17.5078C29.9324 16.9531 30.3333 16.6993 30.619 16.6993C31.2929 16.6993 31.3263 18.1096 30.7772 20.3068C30.7772 20.3068 30.8999 20.3379 31.0795 20.3379C31.4624 20.3379 32.1025 20.1973 32.353 19.3183C32.5109 18.7648 32.818 18.5375 33.1458 18.5375C33.6632 18.5375 34.2314 19.1038 34.342 19.8444C34.5434 21.197 33.6513 22.1551 33.721 22.5631C33.733 22.6355 33.7686 22.664 33.8219 22.664C34.0218 22.664 34.4706 22.2571 34.8625 22.2571C35.1546 22.2571 35.4156 22.484 35.5161 23.2768C35.2866 22.7964 35.0954 22.6104 34.9386 22.6104Z" fill="white"/>
</svg>
