<svg width="50" height="50" viewBox="0 0 50 50" fill="none" xmlns="http://www.w3.org/2000/svg">
<rect width="50" height="50" rx="25" fill="#942A50"/>
<path d="M31.9933 29.6574H36.4028V30.9881H32.7371C34.0803 32.0307 35.0808 33.4527 35.6094 35.0706L34.3521 35.5C33.8278 33.8709 32.7335 32.4865 31.2708 31.602C30.7634 32.0628 30.12 32.3456 29.4379 32.4075L26.6877 34.7956H23.293L20.5747 32.3791C19.8659 32.3195 19.1914 32.0475 18.6391 31.5984C17.1737 32.4829 16.0773 33.8687 15.5524 35.5L14.2951 35.0706C14.8238 33.4527 15.8243 32.0307 17.1675 30.9881H13.5V29.6574H17.9166L19.4448 28.4562L17.6492 25.5199C17.4911 25.5478 17.3314 25.565 17.171 25.5713C16.6874 25.5792 16.2073 25.4888 15.7596 25.3055C15.3119 25.1221 14.9059 24.8498 14.5662 24.5048C14.2266 24.1599 13.9603 23.7495 13.7834 23.2985C13.6065 22.8475 13.5228 22.3652 13.5372 21.8809C13.5372 18.1904 17.0418 14.5 17.0418 14.5L15.7366 22.3901L18.7932 22.3883L20.5835 17.0531V22.3688C20.5111 23.3332 20.0672 24.2316 19.3457 24.874L20.858 27.3473L21.0068 27.2302C22.1655 26.4067 23.5511 25.9644 24.9718 25.9644C26.3924 25.9644 27.778 26.4067 28.9368 27.2302L29.043 27.3136L30.5837 24.8031C29.9178 24.1599 29.5123 23.293 29.445 22.3688V17.0531L31.1858 22.3883L34.2937 22.3901L32.9885 14.5C32.9885 14.5 36.4984 18.1904 36.4984 21.8809C36.5129 22.3658 36.4289 22.8487 36.2516 23.3002C36.0743 23.7517 35.8073 24.1624 35.4669 24.5074C35.1265 24.8525 34.7197 25.1247 34.2711 25.3076C33.8226 25.4904 33.3417 25.5802 32.8575 25.5713C32.6529 25.5671 32.4491 25.5451 32.2483 25.5057L30.4597 28.4261L31.9472 29.5953C31.9703 29.613 31.9738 29.6379 31.9933 29.6574Z" fill="white"/>
</svg>
