<svg width="50" height="50" viewBox="0 0 50 50" fill="none" xmlns="http://www.w3.org/2000/svg">
<circle cx="25" cy="25" r="25" fill="#942A50"/>
<path d="M34 29.5C34 29.88 33.79 30.21 33.47 30.38L25.57 34.82C25.41 34.94 25.21 35 25 35C24.79 35 24.59 34.94 24.43 34.82L16.53 30.38C16.3696 30.2958 16.2354 30.1693 16.1419 30.0141C16.0485 29.859 15.9994 29.6811 16 29.5V20.5C16 20.12 16.21 19.79 16.53 19.62L24.43 15.18C24.59 15.06 24.79 15 25 15C25.21 15 25.41 15.06 25.57 15.18L33.47 19.62C33.79 19.79 34 20.12 34 20.5V29.5ZM25 17.15L19.04 20.5L25 23.85L30.96 20.5L25 17.15ZM18 28.91L24 32.29V25.58L18 22.21V28.91ZM32 28.91V22.21L26 25.58V32.29L32 28.91Z" fill="white"/>
</svg>
